<?xml version="1.0" encoding="UTF-8"?>
<svg width="1329px" height="397px" viewBox="0 0 1329 397" version="1.1" xmlns="http://www.w3.org/2000/svg" xmlns:xlink="http://www.w3.org/1999/xlink">
    <title>编组 21</title>
    <g id="页面-1" stroke="none" stroke-width="1" fill="none" fill-rule="evenodd" opacity="0.20375279">
        <g id="抖店官网" transform="translate(-325.000000, -3666.000000)" fill="#D6DCE5">
            <g id="模块6" transform="translate(0.000000, 3500.000000)">
                <g id="编组-62" transform="translate(325.000000, 80.000000)">
                    <g id="编组-21" transform="translate(0.000000, 86.000000)">
                        <g id="编组-12">
                            <g id="编组-11备份-12" transform="translate(179.000000, 33.000000) rotate(-180.000000) translate(-179.000000, -33.000000) translate(73.000000, 0.000000)">
                                <circle id="椭圆形" cx="19" cy="19" r="5"></circle>
                                <circle id="椭圆形备份" fill-opacity="0.3" cx="19" cy="33" r="5"></circle>
                                <circle id="椭圆形备份-4" cx="37" cy="33" r="5"></circle>
                                <circle id="椭圆形备份-9" cx="59" cy="33" r="5"></circle>
                                <circle id="椭圆形备份-59" cx="73" cy="33" r="5"></circle>
                                <circle id="椭圆形备份-60" cx="73" cy="47" r="5"></circle>
                                <circle id="椭圆形备份-61" cx="87" cy="47" r="5"></circle>
                                <circle id="椭圆形备份-65" opacity="0.3" cx="101" cy="47" r="5"></circle>
                                <circle id="椭圆形备份-68" cx="115" cy="47" r="5"></circle>
                                <circle id="椭圆形备份-93" cx="115" cy="61" r="5"></circle>
                                <circle id="椭圆形备份-81" opacity="0.3" cx="129" cy="47" r="5"></circle>
                                <circle id="椭圆形备份-94" opacity="0.3" cx="147" cy="61" r="5"></circle>
                                <circle id="椭圆形备份-64" cx="87" cy="61" r="5"></circle>
                                <circle id="椭圆形备份-62" opacity="0.3" cx="87" cy="33" r="5"></circle>
                                <circle id="椭圆形备份-66" cx="101" cy="33" r="5"></circle>
                                <circle id="椭圆形备份-69" cx="115" cy="33" r="5"></circle>
                                <circle id="椭圆形备份-92" cx="129" cy="33" r="5"></circle>
                                <circle id="椭圆形备份-95" cx="147" cy="33" r="5"></circle>
                                <circle id="椭圆形备份-107" cx="161" cy="33" r="5"></circle>
                                <circle id="椭圆形备份-110" cx="175" cy="33" r="5"></circle>
                                <circle id="椭圆形备份-115" cx="207" cy="33" r="5"></circle>
                                <circle id="椭圆形备份-109" cx="161" cy="47" r="5"></circle>
                                <circle id="椭圆形备份-106" cx="147" cy="19" r="5"></circle>
                                <circle id="椭圆形备份-108" opacity="0.3" cx="161" cy="19" r="5"></circle>
                                <circle id="椭圆形备份-111" cx="175" cy="19" r="5"></circle>
                                <circle id="椭圆形备份-113" cx="193" cy="19" r="5"></circle>
                                <circle id="椭圆形备份-114" cx="193" cy="47" r="5"></circle>
                                <circle id="椭圆形备份-112" cx="175" cy="5" r="5"></circle>
                                <circle id="椭圆形备份-63" cx="87" cy="19" r="5"></circle>
                                <circle id="椭圆形备份-67" cx="101" cy="19" r="5"></circle>
                                <circle id="椭圆形备份-70" cx="115" cy="19" r="5"></circle>
                                <circle id="椭圆形备份-73" opacity="0.3" cx="115" cy="5" r="5"></circle>
                                <circle id="椭圆形备份-80" cx="129" cy="5" r="5"></circle>
                                <circle id="椭圆形备份-58" fill-opacity="0.3" cx="59" cy="47" r="5"></circle>
                                <circle id="椭圆形备份-21" opacity="0.3" cx="59" cy="19" r="5"></circle>
                                <circle id="椭圆形备份-31" cx="59" cy="5" r="5"></circle>
                                <circle id="椭圆形备份-20" cx="37" cy="61" r="5"></circle>
                                <circle id="椭圆形备份-2" cx="19" cy="47" r="5"></circle>
                                <circle id="椭圆形备份-3" cx="5" cy="47" r="5"></circle>
                            </g>
                            <g id="编组-11备份-13" transform="translate(106.000000, 95.000000) rotate(-180.000000) translate(-106.000000, -95.000000) translate(0.000000, 62.000000)">
                                <circle id="椭圆形" cx="19" cy="19" r="5"></circle>
                                <circle id="椭圆形备份" fill-opacity="0.3" cx="19" cy="33" r="5"></circle>
                                <circle id="椭圆形备份-4" cx="37" cy="33" r="5"></circle>
                                <circle id="椭圆形备份-9" cx="59" cy="33" r="5"></circle>
                                <circle id="椭圆形备份-59" cx="73" cy="33" r="5"></circle>
                                <circle id="椭圆形备份-60" cx="73" cy="47" r="5"></circle>
                                <circle id="椭圆形备份-61" cx="87" cy="47" r="5"></circle>
                                <circle id="椭圆形备份-65" opacity="0.3" cx="101" cy="47" r="5"></circle>
                                <circle id="椭圆形备份-68" cx="115" cy="47" r="5"></circle>
                                <circle id="椭圆形备份-93" cx="115" cy="61" r="5"></circle>
                                <circle id="椭圆形备份-81" opacity="0.3" cx="129" cy="47" r="5"></circle>
                                <circle id="椭圆形备份-94" opacity="0.3" cx="147" cy="61" r="5"></circle>
                                <circle id="椭圆形备份-64" cx="87" cy="61" r="5"></circle>
                                <circle id="椭圆形备份-62" opacity="0.3" cx="87" cy="33" r="5"></circle>
                                <circle id="椭圆形备份-66" cx="101" cy="33" r="5"></circle>
                                <circle id="椭圆形备份-69" cx="115" cy="33" r="5"></circle>
                                <circle id="椭圆形备份-92" cx="129" cy="33" r="5"></circle>
                                <circle id="椭圆形备份-95" cx="147" cy="33" r="5"></circle>
                                <circle id="椭圆形备份-107" cx="161" cy="33" r="5"></circle>
                                <circle id="椭圆形备份-110" cx="175" cy="33" r="5"></circle>
                                <circle id="椭圆形备份-115" cx="207" cy="33" r="5"></circle>
                                <circle id="椭圆形备份-109" cx="161" cy="47" r="5"></circle>
                                <circle id="椭圆形备份-106" cx="147" cy="19" r="5"></circle>
                                <circle id="椭圆形备份-108" opacity="0.3" cx="161" cy="19" r="5"></circle>
                                <circle id="椭圆形备份-111" cx="175" cy="19" r="5"></circle>
                                <circle id="椭圆形备份-113" cx="193" cy="19" r="5"></circle>
                                <circle id="椭圆形备份-114" cx="193" cy="47" r="5"></circle>
                                <circle id="椭圆形备份-112" cx="175" cy="5" r="5"></circle>
                                <circle id="椭圆形备份-63" cx="87" cy="19" r="5"></circle>
                                <circle id="椭圆形备份-67" cx="101" cy="19" r="5"></circle>
                                <circle id="椭圆形备份-70" cx="115" cy="19" r="5"></circle>
                                <circle id="椭圆形备份-73" opacity="0.3" cx="115" cy="5" r="5"></circle>
                                <circle id="椭圆形备份-80" cx="129" cy="5" r="5"></circle>
                                <circle id="椭圆形备份-58" fill-opacity="0.3" cx="59" cy="47" r="5"></circle>
                                <circle id="椭圆形备份-21" opacity="0.3" cx="59" cy="19" r="5"></circle>
                                <circle id="椭圆形备份-31" cx="59" cy="5" r="5"></circle>
                                <circle id="椭圆形备份-20" cx="37" cy="61" r="5"></circle>
                                <circle id="椭圆形备份-2" cx="19" cy="47" r="5"></circle>
                                <circle id="椭圆形备份-3" cx="5" cy="47" r="5"></circle>
                            </g>
                        </g>
                        <g id="编组-11备份-11" transform="translate(1223.000000, 364.000000) rotate(-180.000000) translate(-1223.000000, -364.000000) translate(1117.000000, 331.000000)">
                            <circle id="椭圆形" cx="19" cy="19" r="5"></circle>
                            <circle id="椭圆形备份" fill-opacity="0.3" cx="19" cy="33" r="5"></circle>
                            <circle id="椭圆形备份-4" cx="37" cy="33" r="5"></circle>
                            <circle id="椭圆形备份-9" cx="59" cy="33" r="5"></circle>
                            <circle id="椭圆形备份-59" cx="73" cy="33" r="5"></circle>
                            <circle id="椭圆形备份-60" cx="73" cy="47" r="5"></circle>
                            <circle id="椭圆形备份-61" cx="87" cy="47" r="5"></circle>
                            <circle id="椭圆形备份-65" opacity="0.3" cx="101" cy="47" r="5"></circle>
                            <circle id="椭圆形备份-68" cx="115" cy="47" r="5"></circle>
                            <circle id="椭圆形备份-93" cx="115" cy="61" r="5"></circle>
                            <circle id="椭圆形备份-81" opacity="0.3" cx="129" cy="47" r="5"></circle>
                            <circle id="椭圆形备份-94" opacity="0.3" cx="147" cy="61" r="5"></circle>
                            <circle id="椭圆形备份-64" cx="87" cy="61" r="5"></circle>
                            <circle id="椭圆形备份-62" opacity="0.3" cx="87" cy="33" r="5"></circle>
                            <circle id="椭圆形备份-66" cx="101" cy="33" r="5"></circle>
                            <circle id="椭圆形备份-69" cx="115" cy="33" r="5"></circle>
                            <circle id="椭圆形备份-92" cx="129" cy="33" r="5"></circle>
                            <circle id="椭圆形备份-95" cx="147" cy="33" r="5"></circle>
                            <circle id="椭圆形备份-107" cx="161" cy="33" r="5"></circle>
                            <circle id="椭圆形备份-110" cx="175" cy="33" r="5"></circle>
                            <circle id="椭圆形备份-115" cx="207" cy="33" r="5"></circle>
                            <circle id="椭圆形备份-109" cx="161" cy="47" r="5"></circle>
                            <circle id="椭圆形备份-106" cx="147" cy="19" r="5"></circle>
                            <circle id="椭圆形备份-108" opacity="0.3" cx="161" cy="19" r="5"></circle>
                            <circle id="椭圆形备份-111" cx="175" cy="19" r="5"></circle>
                            <circle id="椭圆形备份-113" cx="193" cy="19" r="5"></circle>
                            <circle id="椭圆形备份-114" cx="193" cy="47" r="5"></circle>
                            <circle id="椭圆形备份-112" cx="175" cy="5" r="5"></circle>
                            <circle id="椭圆形备份-63" cx="87" cy="19" r="5"></circle>
                            <circle id="椭圆形备份-67" cx="101" cy="19" r="5"></circle>
                            <circle id="椭圆形备份-70" cx="115" cy="19" r="5"></circle>
                            <circle id="椭圆形备份-73" opacity="0.3" cx="115" cy="5" r="5"></circle>
                            <circle id="椭圆形备份-80" cx="129" cy="5" r="5"></circle>
                            <circle id="椭圆形备份-58" fill-opacity="0.3" cx="59" cy="47" r="5"></circle>
                            <circle id="椭圆形备份-21" opacity="0.3" cx="59" cy="19" r="5"></circle>
                            <circle id="椭圆形备份-31" cx="59" cy="5" r="5"></circle>
                            <circle id="椭圆形备份-20" cx="37" cy="61" r="5"></circle>
                            <circle id="椭圆形备份-2" cx="19" cy="47" r="5"></circle>
                            <circle id="椭圆形备份-3" cx="5" cy="47" r="5"></circle>
                        </g>
                    </g>
                </g>
            </g>
        </g>
    </g>
</svg>